<svg width="80" height="60" xmlns="http://www.w3.org/2000/svg">
 <!-- Created with Method Draw - http://github.com/duopixel/Method-Draw/ -->

 <g>
  <title>background</title>
  <rect x="-1" y="-1" width="82" height="62" id="canvas_background" fill="none"/>
  <g id="canvasGrid" display="none">
   <rect id="svg_2" width="100%" height="100%" x="0" y="0" stroke-width="0" fill="url(#gridpattern)"/>
  </g>
 </g>
 <g>
  <title>Layer 1</title>
  <path fill="#ffffff" stroke-width="4.5" d="m2.42337,8.52276l0,0c0,-3.36689 3.85653,-6.0963 8.61379,-6.0963l3.91536,0l0,0l18.79373,0l35.23824,0c2.28452,0 4.47547,0.64229 6.09088,1.78556c1.61539,1.14328 2.52291,2.6939 2.52291,4.31074l0,15.24075l0,0l0,9.14445l0,0c0,3.36689 -3.85652,6.0963 -8.61379,6.0963l-35.23823,0l-24.55169,15.50147l5.75796,-15.50147l-3.91537,0c-4.75726,0 -8.61379,-2.72941 -8.61379,-6.0963l0,0l0,-9.14445l0,0l0,-15.24075z" id="svg_1" stroke="#999999"/>
 </g>
</svg>